<?xml version="1.0" encoding="UTF-8" standalone="no"?>
<!-- Generator: Adobe Illustrator 18.1.1, SVG Export Plug-In . SVG Version: 6.00 Build 0)  -->

<svg
   xmlns:dc="http://purl.org/dc/elements/1.1/"
   xmlns:cc="http://creativecommons.org/ns#"
   xmlns:rdf="http://www.w3.org/1999/02/22-rdf-syntax-ns#"
   xmlns:svg="http://www.w3.org/2000/svg"
   xmlns="http://www.w3.org/2000/svg"
   xmlns:sodipodi="http://sodipodi.sourceforge.net/DTD/sodipodi-0.dtd"
   xmlns:inkscape="http://www.inkscape.org/namespaces/inkscape"
   version="1.1"
   id="Capa_1"
   x="0px"
   y="0px"
   viewBox="0 0 51.787 51.787"
   style="enable-background:new 0 0 51.787 51.787;"
   xml:space="preserve"
   inkscape:version="0.91 r13725"
   sodipodi:docname="bus-stop-selected-marker.svg"><metadata
     id="metadata75"><rdf:RDF><cc:Work
         rdf:about=""><dc:format>image/svg+xml</dc:format><dc:type
           rdf:resource="http://purl.org/dc/dcmitype/StillImage" /><dc:title></dc:title></cc:Work></rdf:RDF></metadata><defs
     id="defs73" /><sodipodi:namedview
     pagecolor="#ffffff"
     bordercolor="#666666"
     borderopacity="1"
     objecttolerance="10"
     gridtolerance="10"
     guidetolerance="10"
     inkscape:pageopacity="0"
     inkscape:pageshadow="2"
     inkscape:window-width="1366"
     inkscape:window-height="705"
     id="namedview71"
     showgrid="false"
     inkscape:zoom="4.5571283"
     inkscape:cx="-6.4733748"
     inkscape:cy="25.893499"
     inkscape:window-x="-8"
     inkscape:window-y="-8"
     inkscape:window-maximized="1"
     inkscape:current-layer="Capa_1" /><g
     id="g3"><g
       id="g5"><path
         d="M25.892,0c-7.646,0-13.845,6.198-13.845,13.845c0,1.494,0.244,2.929,0.68,4.274c0.981,3.461,12.292,33.668,12.292,33.668    s12.014-27.703,13.83-33.096c0.565-1.511,0.891-3.14,0.891-4.848C39.738,6.199,33.539,0,25.892,0z M25.892,24.761    c-6,0-10.865-4.867-10.865-10.865c0-6.003,4.865-10.868,10.865-10.868c6.003,0,10.866,4.865,10.866,10.868    C36.758,19.894,31.895,24.761,25.892,24.761z"
         id="path7" /><path
         d="M30.511,6.326h-9.237c-0.948,0-1.72,0.835-1.72,1.866v10.039c0,0.685,0.341,1.28,0.848,1.604v1.073    c0,0.353,0.567,0.636,1.271,0.636c0.701,0,1.271-0.283,1.271-0.636v-0.812H24.5v-0.001h3.217v0.001h1.195v0.812    c0,0.353,0.568,0.636,1.271,0.636s1.271-0.283,1.271-0.636v-1.116c0.471-0.334,0.78-0.907,0.78-1.562V8.191    C32.232,7.162,31.461,6.326,30.511,6.326z M23.22,7.121h5.344V7.64H23.22V7.121z M24.291,17.061h-3.373v-1.248h3.373V17.061z     M27.715,19.941h-3.217v-0.99h3.217V19.941z M31.037,17.061h-3.374v-1.248h3.374V17.061z M31.185,12.773    c0,0.127-0.224,0.23-0.5,0.23H21.1c-0.275,0-0.499-0.104-0.499-0.23V8.339c0-0.128,0.224-0.232,0.499-0.232h9.585    c0.276,0,0.5,0.104,0.5,0.232V12.773z"
         id="path9" /></g><g
       id="g11" /><g
       id="g13" /><g
       id="g15" /><g
       id="g17" /><g
       id="g19" /><g
       id="g21" /><g
       id="g23" /><g
       id="g25" /><g
       id="g27" /><g
       id="g29" /><g
       id="g31" /><g
       id="g33" /><g
       id="g35" /><g
       id="g37" /><g
       id="g39" /></g><g
     id="g41" /><g
     id="g43" /><g
     id="g45" /><g
     id="g47" /><g
     id="g49" /><g
     id="g51" /><g
     id="g53" /><g
     id="g55" /><g
     id="g57" /><g
     id="g59" /><g
     id="g61" /><g
     id="g63" /><g
     id="g65" /><g
     id="g67" /><g
     id="g69" /><path
     style="fill:#800000"
     d="M 24.771051,50.808602 C 24.408742,49.900357 19.332079,36.199272 16.897097,29.558088 12.796998,18.375454 12.410234,17.114151 12.287895,14.526692 c -0.135563,-2.867137 0.242658,-4.6357323 1.513934,-7.0792849 1.537316,-2.9549148 4.379872,-5.4380447 7.46747,-6.52324812 4.890633,-1.71891904 10.14099,-0.61897526 13.920166,2.91625882 1.776839,1.6621452 2.853999,3.3131604 3.672844,5.6295439 0.591004,1.6718603 0.662584,2.1481853 0.660964,4.3984213 -0.0022,3.051 -0.181987,3.634138 -3.910728,12.683959 -2.44681,5.938516 -10.110489,24.001095 -10.431219,24.585415 -0.114937,0.209395 -0.233332,0.114409 -0.410275,-0.329155 z M 28.561505,24.504206 C 35.512542,22.69369 38.851456,14.955238 35.441797,8.5580629 34.555373,6.8949599 32.392337,4.8751326 30.56255,4.0018555 24.007879,0.87359964 16.190259,5.0500298 15.068611,12.279228 c -1.181266,7.61344 6.048642,14.16396 13.492894,12.224978 z"
     id="path4203"
     inkscape:connector-curvature="0" /><path
     style="fill:#800000"
     d="m 20.71781,21.193256 c -0.08614,-0.08614 -0.156616,-0.396136 -0.156616,-0.688882 0,-0.292747 -0.197493,-0.783338 -0.438873,-1.090203 -0.413225,-0.525331 -0.438873,-0.890206 -0.438873,-6.243665 l 0,-5.6857287 0.538617,-0.5386167 0.538617,-0.5386167 4.936969,0 c 5.242322,0 5.828029,0.095773 6.25004,1.0219868 0.341909,0.7504081 0.332315,10.8317333 -0.01103,11.5852833 -0.140063,0.307404 -0.331595,0.558916 -0.425627,0.558916 -0.09403,0 -0.201614,0.370299 -0.239073,0.822887 -0.06766,0.817556 -0.07444,0.822886 -1.045676,0.822886 -0.86224,0 -0.992705,-0.06472 -1.10586,-0.548591 -0.09175,-0.392341 -0.297692,-0.568367 -0.723061,-0.618025 -0.464783,-0.05426 -0.594773,-0.186146 -0.594773,-0.603451 0,-0.521228 -0.04204,-0.534015 -1.755491,-0.534015 -1.726233,0 -1.755492,0.0091 -1.755492,0.548591 0,0.478649 -0.09606,0.548591 -0.753452,0.548591 -0.658824,0 -0.762172,0.07579 -0.822886,0.60345 -0.06146,0.534113 -0.171204,0.61094 -0.955142,0.668635 -0.487138,0.03585 -0.956183,-0.0053 -1.042323,-0.09143 z m 3.573803,-4.801354 0,-0.768028 -1.755491,0 -1.755492,0 0,0.768028 0,0.768027 1.755492,0 1.755491,0 0,-0.768027 z m 6.80253,0 0,-0.768028 -1.755492,0 -1.755491,0 0,0.768028 0,0.768027 1.755491,0 1.755492,0 0,-0.768027 z m -0.267365,-3.321949 c 0.488139,-0.130772 0.499117,-0.195193 0.438873,-2.575382 l -0.06179,-2.4412538 -5.266474,0 -5.266475,0 -0.06266,2.3960298 c -0.04627,1.769193 0.01114,2.442855 0.219436,2.575018 0.325198,0.206336 9.247219,0.247014 9.999089,0.04559 z M 28.680342,7.3950079 c 0,-0.275027 -0.451064,-0.3291547 -2.742955,-0.3291547 -2.291892,0 -2.742956,0.054128 -2.742956,0.3291547 0,0.275027 0.451064,0.3291546 2.742956,0.3291546 2.291891,0 2.742955,-0.054128 2.742955,-0.3291546 z"
     id="path4205"
     inkscape:connector-curvature="0" /></svg>