<?xml version="1.0" encoding="utf-8"?>
<!-- Generator: Adobe Illustrator 17.0.0, SVG Export Plug-In . SVG Version: 6.00 Build 0)  -->
<!DOCTYPE svg PUBLIC "-//W3C//DTD SVG 1.1//EN" "http://www.w3.org/Graphics/SVG/1.1/DTD/svg11.dtd">
<svg version="1.1" id="Layer_1" xmlns="http://www.w3.org/2000/svg" xmlns:xlink="http://www.w3.org/1999/xlink" x="0px" y="0px"
	 width="512px" height="512px" viewBox="0 0 512 512" enable-background="new 0 0 512 512" xml:space="preserve">
<g>
	<path fill-rule="evenodd" clip-rule="evenodd" d="M231.488,40.221c0.467-2.361-0.698-2.875-2.849-2.875h-0.692l-1.35,5.881h0.722
		C229.687,43.227,230.995,42.709,231.488,40.221z"/>
	<path fill-rule="evenodd" clip-rule="evenodd" d="M497.165,101.545h-8.954v-2.565c0-9.173-4.64-16.378-11.459-21.453
		c-7.424-5.567-17.524-8.519-26.311-8.519h-8.793v-8.513c0-11.521-9.715-18.234-20.849-20.906
		c-116.819-27.949-227.194-31.666-328.121,0c-10.972,3.438-20.906,9.385-20.906,20.906v8.513H61.56
		c-8.787,0-18.938,2.952-26.36,8.519c-6.77,5.075-11.466,12.28-11.466,21.453v2.565H14.78c-5.293,0-9.609,4.366-9.609,9.716v74.455
		c0,5.349,4.316,9.665,9.609,9.665h8.954v15.662c0,10.593,3.874,23.477,10.755,32.918c6.221,8.513,14.902,14.522,25.601,14.522
		h11.682v165.885c0,11.465,9.385,20.855,20.906,20.855h6.003v49.564h52.186v-49.564h204.975v49.564h52.185v-49.564h12.773
		c11.464,0,20.849-9.39,20.849-20.855V258.483h10.264c10.698,0,19.323-6.009,25.55-14.522c6.875-9.441,10.749-22.325,10.749-32.918
		v-15.662h8.954c5.294,0,9.665-4.315,9.665-9.665v-74.455C506.83,105.911,502.458,101.545,497.165,101.545z M71.772,245.486H60.09
		c-6.009,0-11.14-3.762-15.07-9.167c-5.237-7.261-8.239-17.144-8.239-25.276v-15.662h6.333c5.293,0,9.659-4.315,9.659-9.665v-74.455
		c0-5.35-4.366-9.716-9.659-9.716H36.78v-2.565c0-4.59,2.566-8.357,6.221-11.084c5.132-3.874,12.281-5.897,18.558-5.897h10.212
		V245.486z M276.592,32.358c1.866-1.436,4.834-1.765,7.748-1.765c4.225,0,8.188,0.76,12.442,3.028l2.269,7.369h-9.833l-0.144-0.615
		c-0.337-1.439-0.834-3.393-2.826-3.393c-1.303,0-1.806,0.915-1.564,2.105c0.131,0.641,0.341,1.289,1.003,1.827
		c0.723,0.618,2.334,1.087,3.265,1.324c2.718,0.67,6.414,1.59,9.018,3.055c1.523,0.87,2.788,1.919,3.762,3.458
		c1.091,1.616,1.925,3.451,2.505,5.289l0.059,0.185c2.564,8.117,1.164,14.719-11.009,14.719c-5.202,0-10.873-1.176-15.472-4.924
		l-1.441-11.317h11.209c0.483,2.365,0.811,4.18,1.389,5.055c0.575,0.834,1.542,1.382,2.438,1.382c1.614,0,1.924-1.723,1.572-3.218
		c-0.964-4.081-3.382-4.397-6.694-5.201c-7.126-1.756-11.139-3.427-12.055-10.843l-0.088-0.717
		C273.88,35.795,274.241,34.175,276.592,32.358z M245.108,54.039l1.261-14.538c0.104-1.197,0.321-2.372-0.837-3.098l0.5-5.25h11.889
		l0.003,5.25c-1.227,0.725-1.121,1.901-1.13,3.098l-0.132,16.613c-0.007,0.817,0.156,2.975,2.353,2.975
		c2.195,0,2.325-2.158,2.306-2.975l-0.388-16.613c-0.067-1.197,0.021-2.372-1.293-3.098l-0.073-5.25h11.341l0.553,5.25
		c-1.304,0.725-1.077,1.901-0.963,3.098l1.39,14.538c0.328,4.356,0.353,7.992-2.741,11.373c-2.781,3.023-6.907,3.532-10.582,3.532
		c-3.677,0-7.808-0.508-10.615-3.532C244.826,62.031,244.819,58.395,245.108,54.039z M209.191,59.938
		c1.554-0.651,2.084-1.936,2.564-3.346l5.457-17.693c0.293-1.077,0.472-2.026-0.527-2.497l1.672-5.25h14.194
		c2.452,0,5.201-0.033,7.148,1.172c2.196,1.331,2.675,3.863,2.363,6.463c-0.452,3.763-2.364,6.465-6.454,7.583l-0.013,0.084
		c4.446,0.588,5.573,4.399,5.04,8.993c-0.394,3.393-1.589,7.362-4.489,9.747c-3.269,2.737-6.979,2.794-10.538,2.794h-18.982
		L209.191,59.938z M125.59,406.901c-7.424,0-13.427-6.004-13.427-13.426c0-7.424,6.003-13.427,13.427-13.427
		c7.429,0,13.432,6.004,13.432,13.427C139.021,400.897,133.019,406.901,125.59,406.901z M195.791,365.195H97.479v-59.609
		c33.242,0.441,66.054,6.551,98.312,20.855V365.195z M297.652,398.114c-25.875,0-51.643,0-77.518,0c0-4.478,0-8.949,0-13.426
		c25.875,0,51.643,0,77.518,0C297.652,389.164,297.652,393.636,297.652,398.114z M297.652,376.66c-25.875,0-51.643,0-77.518,0
		c0-4.477,0-8.949,0-13.426c25.875,0,51.643,0,77.518,0C297.652,367.711,297.652,372.183,297.652,376.66z M297.652,355.206
		c-25.875,0-51.643,0-77.518,0c0-4.472,0-8.948,0-13.426c25.875,0,51.643,0,77.518,0
		C297.652,346.258,297.652,350.734,297.652,355.206z M297.652,333.753c-25.875,0-51.643,0-77.518,0c0-4.472,0-8.949,0-13.427
		c25.875,0,51.643,0,77.518,0C297.652,324.804,297.652,329.282,297.652,333.753z M297.652,312.306h-77.518V298.93h77.518V312.306z
		 M389.027,406.901c-7.423,0-13.427-6.004-13.427-13.426c0-7.424,6.004-13.427,13.427-13.427c7.423,0,13.431,6.004,13.431,13.427
		C402.458,400.897,396.45,406.901,389.027,406.901z M420.033,365.195h-98.256v-38.753c32.208-14.304,65.07-20.414,98.256-20.855
		V365.195z M421.452,277.314h-28.281v-3.876c0-6.583-5.149-12.073-12.133-13.778c5.565-3.432,9.308-9.532,9.308-16.55
		c0-10.765-8.727-19.491-19.492-19.491c-10.765,0-19.491,8.727-19.491,19.491c0,7.018,3.743,13.118,9.308,16.55
		c-6.984,1.705-12.133,7.195-12.133,13.778v3.876H96.713V97.829c107.702-22.761,216.003-22.052,324.739,0V277.314z M475.165,101.545
		h-6.328c-5.299,0-9.665,4.366-9.665,9.716v74.455c0,5.349,4.366,9.665,9.665,9.665h6.328v15.662c0,8.133-2.947,18.015-8.184,25.276
		c-3.93,5.405-9.061,9.167-15.069,9.167h-10.264V81.999h8.793c6.277,0,13.426,2.023,18.502,5.897
		c3.712,2.728,6.222,6.494,6.222,11.084V101.545z"/>
	<path fill-rule="evenodd" clip-rule="evenodd" d="M228.907,54.132c0.592-3.01-0.15-4.162-2.89-4.162h-0.969l-1.992,8.673h1.029
		C226.991,58.643,228.27,57.367,228.907,54.132z"/>
</g>
</svg>
