<?xml version="1.0" encoding="utf-8"?>
<!-- Generator: Adobe Illustrator 17.0.0, SVG Export Plug-In . SVG Version: 6.00 Build 0)  -->
<!DOCTYPE svg PUBLIC "-//W3C//DTD SVG 1.1//EN" "http://www.w3.org/Graphics/SVG/1.1/DTD/svg11.dtd">
<svg version="1.1" id="Layer_1" xmlns="http://www.w3.org/2000/svg" xmlns:xlink="http://www.w3.org/1999/xlink" x="0px" y="0px"
	 width="512px" height="512px" viewBox="0 0 512 512" enable-background="new 0 0 512 512" xml:space="preserve">
<g>
	<rect x="334.368" y="97.884" width="23.145" height="15.323"/>
	<rect x="334.368" y="121.201" width="23.145" height="15.303"/>
	<rect x="365.811" y="97.884" width="23.144" height="15.323"/>
	<path d="M302.737,230.225v41.2h81.815h8.296v-8.297v-32.903 M376.253,254.831h-64.766v-7.176h64.766V254.831z"/>
	<rect x="129.498" y="89.682" width="157.231" height="107.163"/>
	<rect x="365.811" y="145.199" width="23.144" height="15.305"/>
	<rect x="365.811" y="168.517" width="23.144" height="15.303"/>
	<rect x="334.368" y="145.199" width="23.145" height="15.305"/>
	<rect x="302.737" y="168.517" width="23.144" height="15.303"/>
	<path d="M137.719,231.061h-8.297v8.296v23.772v8.297h8.297h81.379h8.278v-8.297v-23.772v-8.296h-8.278H137.719z M210.8,254.831
		h-64.783v-7.176H210.8V254.831z"/>
	<rect x="334.368" y="168.517" width="23.145" height="15.303"/>
	<rect x="302.737" y="145.199" width="23.144" height="15.305"/>
	<rect x="302.737" y="97.884" width="23.144" height="15.323"/>
	<rect x="302.737" y="121.201" width="23.144" height="15.303"/>
	<rect x="365.811" y="121.201" width="23.144" height="15.303"/>
	<path d="M433.347,5H78.652H57.918v20.734v303.507v20.734v133.825h396.164V349.976v-20.734V25.734V5H433.347z M99.385,46.468
		h313.227v262.04H99.385V46.468z M103.147,473.54h-9.501v-7.457h9.501V473.54z M103.147,458.625h-9.501v-7.457h9.501V458.625z
		 M103.454,446.514h-9.501v-7.457h9.501V446.514z M103.454,431.599h-9.501v-7.457h9.501V431.599z M103.454,416.685h-9.501v-7.457
		h9.501V416.685z M103.454,401.77h-9.501v-7.457h9.501V401.77z M103.454,386.855h-9.501v-7.457h9.501V386.855z M103.454,371.941
		h-9.501v-7.457h9.501V371.941z M103.454,357.026h-9.501v-7.457h9.501V357.026z M122.15,473.54h-9.502v-7.457h9.502V473.54z
		 M122.15,458.625h-9.502v-7.457h9.502V458.625z M122.457,446.514h-9.502v-7.457h9.502V446.514z M122.457,431.599h-9.502v-7.457
		h9.502V431.599z M122.457,416.685h-9.502v-7.457h9.502V416.685z M122.457,401.77h-9.502v-7.457h9.502V401.77z M122.457,386.855
		h-9.502v-7.457h9.502V386.855z M122.457,371.941h-9.502v-7.457h9.502V371.941z M122.457,357.026h-9.502v-7.457h9.502V357.026z
		 M141.152,473.54h-9.501v-7.457h9.501V473.54z M141.152,458.625h-9.501v-7.457h9.501V458.625z M141.459,446.514h-9.501v-7.457
		h9.501V446.514z M141.459,431.599h-9.501v-7.457h9.501V431.599z M141.459,416.685h-9.501v-7.457h9.501V416.685z M141.459,401.77
		h-9.501v-7.457h9.501V401.77z M141.459,386.855h-9.501v-7.457h9.501V386.855z M141.459,371.941h-9.501v-7.457h9.501V371.941z
		 M141.459,357.026h-9.501v-7.457h9.501V357.026z M347.624,460.459h-180.84V353.297h180.84V460.459z M382.449,473.54h-9.501v-7.457
		h9.501V473.54z M382.449,458.625h-9.501v-7.457h9.501V458.625z M382.756,446.514h-9.501v-7.457h9.501V446.514z M382.756,431.599
		h-9.501v-7.457h9.501V431.599z M382.756,416.685h-9.501v-7.457h9.501V416.685z M382.756,401.77h-9.501v-7.457h9.501V401.77z
		 M382.756,386.855h-9.501v-7.457h9.501V386.855z M382.756,371.941h-9.501v-7.457h9.501V371.941z M382.756,357.026h-9.501v-7.457
		h9.501V357.026z M401.452,473.54h-9.502v-7.457h9.502V473.54z M401.452,458.625h-9.502v-7.457h9.502V458.625z M401.759,446.514
		h-9.502v-7.457h9.502V446.514z M401.759,431.599h-9.502v-7.457h9.502V431.599z M401.759,416.685h-9.502v-7.457h9.502V416.685z
		 M401.759,401.77h-9.502v-7.457h9.502V401.77z M401.759,386.855h-9.502v-7.457h9.502V386.855z M401.759,371.941h-9.502v-7.457
		h9.502V371.941z M401.759,357.026h-9.502v-7.457h9.502V357.026z M420.454,473.54h-9.501v-7.457h9.501V473.54z M420.454,458.625
		h-9.501v-7.457h9.501V458.625z M420.761,446.514h-9.501v-7.457h9.501V446.514z M420.761,431.599h-9.501v-7.457h9.501V431.599z
		 M420.761,416.685h-9.501v-7.457h9.501V416.685z M420.761,401.77h-9.501v-7.457h9.501V401.77z M420.761,386.855h-9.501v-7.457
		h9.501V386.855z M420.761,371.941h-9.501v-7.457h9.501V371.941z M420.761,357.026h-9.501v-7.457h9.501V357.026z"/>
	<rect x="71.292" y="483.801" width="73.641" height="23.199"/>
	<rect x="371.841" y="483.801" width="68.829" height="23.199"/>
	<rect x="230.132" y="360.883" width="51.735" height="7.536"/>
</g>
</svg>
